<svg xmlns="http://www.w3.org/2000/svg" xmlns:svg="http://www.w3.org/2000/svg" id="svg8" width="210mm" height="297mm" version="1.1" viewBox="0 0 210 297"><defs id="defs2"><clipPath id="clipPath870" clipPathUnits="userSpaceOnUse"><rect style="opacity:1;fill:#282828;fill-opacity:1;stroke:none;stroke-width:13.679;stroke-linecap:square;stroke-linejoin:round;stroke-miterlimit:4;stroke-dasharray:none;stroke-opacity:1;paint-order:fill markers stroke" id="rect872" width="71.831" height="123.976" x="-181.807" y="104.232" ry="0"/></clipPath><clipPath id="clipPath998" clipPathUnits="userSpaceOnUse"><rect style="opacity:1;fill:#282828;fill-opacity:1;stroke:none;stroke-width:13.679;stroke-linecap:square;stroke-linejoin:round;stroke-miterlimit:4;stroke-dasharray:none;stroke-opacity:1;paint-order:fill markers stroke" id="rect996" width="71.831" height="123.976" x="-181.807" y="104.232" ry="0"/></clipPath></defs><metadata id="metadata5"/><g id="layer1"><rect style="fill:#fff;fill-opacity:1;fill-rule:evenodd;stroke:none;stroke-width:4;stroke-linecap:round;stroke-linejoin:round;stroke-miterlimit:4;stroke-dasharray:none;stroke-opacity:1;paint-order:normal" id="rect945" width="329.709" height="164.854" x="-55.759" y="70.124"/><text id="text1404" x="2.806" y="222.739" xml:space="preserve" style="font-style:normal;font-variant:normal;font-weight:400;font-stretch:normal;font-size:41.1672px;line-height:1.25;font-family:sans-serif;-inkscape-font-specification:sans-serif;fill:#ff3e2c;fill-opacity:1;stroke-width:1.02918"><tspan style="font-style:normal;font-variant:normal;font-weight:400;font-stretch:normal;font-family:'ITC Bauhaus';-inkscape-font-specification:'ITC Bauhaus';fill:#ff3e2c;fill-opacity:1;stroke-width:1.02918" id="tspan1402" x="2.806" y="222.739">Rotomgram</tspan></text><path id="path955" d="m 95.044212,165.64277 a 5.3839583,9.9493446 0 0 1 -5.399473,9.91098 5.3839583,9.9493446 0 0 1 -5.368394,-9.96847 5.3839583,9.9493446 0 0 1 5.389134,-9.93017 5.3839583,9.9493446 0 0 1 5.378773,9.94934" transform="matrix(0.97363154,-0.22812634,0.01923433,0.999815,0,0)" style="fill:none;fill-opacity:1;stroke:#ff3e2c;stroke-width:3.16574;stroke-linecap:square;stroke-linejoin:round;stroke-miterlimit:4;stroke-dasharray:none;stroke-opacity:1;paint-order:fill markers stroke"/><path style="fill:#ff3e2c;fill-opacity:1;stroke:none;stroke-width:3.95717;stroke-linecap:square;stroke-linejoin:round;stroke-miterlimit:4;stroke-dasharray:none;stroke-opacity:1;paint-order:fill markers stroke" id="path957" d="m 92.648219,165.82154 a 2.9871538,5.5201445 0 0 1 -2.995762,5.49886 2.9871538,5.5201445 0 0 1 -2.978518,-5.53075 2.9871538,5.5201445 0 0 1 2.990025,-5.50951 2.9871538,5.5201445 0 0 1 2.984277,5.52014" transform="matrix(0.97363154,-0.22812634,0.01923433,0.999815,0,0)"/><path id="path959" d="m 85.925935,147.33514 c 0.886489,-0.30841 1.77282,-0.61677 2.65897,-0.92507" style="fill:none;stroke:#ff3e2c;stroke-width:3.91308;stroke-linecap:butt;stroke-linejoin:miter;stroke-miterlimit:4;stroke-dasharray:none;stroke-opacity:1"/><path style="fill:none;stroke:#ff3e2c;stroke-width:3.91308;stroke-linecap:butt;stroke-linejoin:miter;stroke-miterlimit:4;stroke-dasharray:none;stroke-opacity:1" id="path963" d="m 92.507585,144.98258 c 0.886502,-0.30842 1.77282,-0.61677 2.65898,-0.92507"/><rect style="fill:none;fill-opacity:1;stroke:#ff3e2c;stroke-width:10.85348507;stroke-linecap:round;stroke-linejoin:round;stroke-miterlimit:4;stroke-dasharray:none;stroke-opacity:1;paint-order:normal" id="rect943" width="80.509" height="103.565" x="-171.979" y="113.682" clip-path="url(#clipPath870)" ry="17.387" transform="matrix(0.46068152,-0.12343924,0,0.46068152,142.15806,59.246708)"/><path style="fill:none;stroke:#ff3e2c;stroke-width:5;stroke-linecap:round;stroke-linejoin:round;stroke-miterlimit:4;stroke-dasharray:none;stroke-opacity:1" id="path945" d="m 90.088925,173.25315 c 4.985586,-1.32679 9.971725,-2.65373 13.738525,-1.58854 3.76681,1.06519 6.31589,4.52219 11.09895,5.65359 4.78305,1.1314 11.79841,-0.0627 15.30621,-0.65978 3.5078,-0.59707 3.5078,-0.59707 0.28446,-2.1569 -3.22333,-1.55983 -9.66828,-4.67865 -11.3025,-6.65695 -1.63422,-1.9783 1.54343,-2.81539 4.7209,-3.65244"/><rect id="rect949" width="80.509" height="103.565" x="-171.979" y="113.682" clip-path="url(#clipPath870)" ry="17.387" transform="matrix(-0.46068152,0.12343924,0,0.46068152,72.263816,77.912758)" style="fill:none;fill-opacity:1;stroke:#ff3e2c;stroke-width:10.85348507;stroke-linecap:round;stroke-linejoin:round;stroke-miterlimit:4;stroke-dasharray:none;stroke-opacity:1;paint-order:fill markers stroke"/><path style="fill:none;stroke:#ff3e2c;stroke-width:5;stroke-linecap:round;stroke-linejoin:round;stroke-miterlimit:4;stroke-dasharray:none;stroke-opacity:1" id="path951" d="m 90.355315,125.49262 c 2.815192,-0.81228 5.630257,-1.62452 7.693694,-7.22887 2.063441,-5.60435 3.375521,-16.00158 6.025571,-18.669226 2.65005,-2.667644 6.6382,2.393746 9.5122,-1.714348 2.87401,-4.108098 4.63385,-17.385569 6.27491,-17.168681 1.64106,0.216888 3.16336,13.927927 2.12141,21.143705 -1.04196,7.21578 -4.64829,7.93584 -6.17524,9.65326 -1.52696,1.71742 -0.97439,4.43202 0.70229,5.42867 1.67667,0.99665 4.50622,0.26765 7.32108,-0.45757"/><path style="fill:none;fill-opacity:1;stroke:#ff3e2c;stroke-width:3.16574;stroke-linecap:square;stroke-linejoin:round;stroke-miterlimit:4;stroke-dasharray:none;stroke-opacity:1;paint-order:fill markers stroke" id="path1120" d="m -155.99225,56.644928 a 5.5923405,10.334426 0 0 1 -5.60846,10.294573 5.5923405,10.334426 0 0 1 -5.57617,-10.354288 5.5923405,10.334426 0 0 1 5.59772,-10.314516 5.5923405,10.334426 0 0 1 5.58695,10.334421" transform="matrix(-0.8508648,-0.52538471,-0.33560729,0.94200199,0,0)"/><path id="path1122" d="m -158.48098,56.83059 a 3.1027691,5.7337976 0 0 1 -3.11171,5.711686 3.1027691,5.7337976 0 0 1 -3.0938,-5.744818 3.1027691,5.7337976 0 0 1 3.10575,-5.722751 3.1027691,5.7337976 0 0 1 3.09978,5.733795" transform="matrix(-0.8508648,-0.52538471,-0.33560729,0.94200199,0,0)" style="fill:#ff3e2c;fill-opacity:1;stroke:none;stroke-width:3.95717;stroke-linecap:square;stroke-linejoin:round;stroke-miterlimit:4;stroke-dasharray:none;stroke-opacity:1;paint-order:fill markers stroke"/><path style="fill:none;stroke:#ff3e2c;stroke-width:3.91308;stroke-linecap:butt;stroke-linejoin:miter;stroke-miterlimit:4;stroke-dasharray:none;stroke-opacity:1" id="path1124" d="m 122.24634,141.90004 c -0.77149,-0.59607 -1.54285,-1.19203 -2.31404,-1.78787"/><path id="path1126" d="m 116.55075,137.73598 c -0.7715,-0.59608 -1.54284,-1.19204 -2.31404,-1.78788" style="fill:none;stroke:#ff3e2c;stroke-width:3.91308;stroke-linecap:butt;stroke-linejoin:miter;stroke-miterlimit:4;stroke-dasharray:none;stroke-opacity:1"/></g></svg>