<svg xmlns="http://www.w3.org/2000/svg" xmlns:svg="http://www.w3.org/2000/svg" id="svg8" width="200mm" height="200mm" version="1.1" viewBox="0 0 200 200"><defs id="defs2"><rect id="rect1058" width="5.29" height="12.447" x="-393.448" y="149.317"/><clipPath id="clipPath870" clipPathUnits="userSpaceOnUse"><rect style="opacity:1;fill:#282828;fill-opacity:1;stroke:none;stroke-width:13.67904091;stroke-linecap:square;stroke-linejoin:round;stroke-miterlimit:4;stroke-dasharray:none;stroke-opacity:1;paint-order:fill markers stroke" id="rect872" width="71.831" height="123.976" x="-181.807" y="104.232" ry="0"/></clipPath></defs><metadata id="metadata5"/><g id="layer1" transform="translate(0,-97)"><rect id="rect1025" width="200.941" height="199.528" x="-.227" y="96.971" style="opacity:1;fill:#212b30;fill-opacity:1;stroke:none;stroke-width:4.74665;stroke-linecap:square;stroke-linejoin:round;stroke-miterlimit:4;stroke-dasharray:none;stroke-opacity:1;paint-order:fill markers stroke"/><g id="g1118" transform="matrix(1.3882662,0.3719848,-0.3719848,1.3882662,741.80641,-32.413316)" style="stroke-width:2.08734;stroke-miterlimit:4;stroke-dasharray:none"><path style="opacity:1;fill:none;fill-opacity:1;stroke:#ff3e2c;stroke-width:2.11086;stroke-linecap:square;stroke-linejoin:round;stroke-miterlimit:4;stroke-dasharray:none;stroke-opacity:1;paint-order:fill markers stroke" id="path955" d="m -470.90143,56.706556 a 4.7865677,8.8453903 0 0 1 -4.80036,8.811279 4.7865677,8.8453903 0 0 1 -4.77273,-8.86239 4.7865677,8.8453903 0 0 1 4.79117,-8.82835 4.7865677,8.8453903 0 0 1 4.78196,8.845387" transform="matrix(0.88141241,-0.4723475,0.27735009,0.96076892,0,0)"/><path id="path957" d="m -473.03157,56.865482 a 2.6557064,4.9076428 0 0 1 -2.66336,4.888717 2.6557064,4.9076428 0 0 1 -2.64803,-4.917075 2.6557064,4.9076428 0 0 1 2.65826,-4.898188 2.6557064,4.9076428 0 0 1 2.65315,4.907641" transform="matrix(0.88141241,-0.4723475,0.27735009,0.96076892,0,0)" style="opacity:1;fill:#ff3e2c;fill-opacity:1;stroke:none;stroke-width:2.11086;stroke-linecap:square;stroke-linejoin:round;stroke-miterlimit:4;stroke-dasharray:none;stroke-opacity:1;paint-order:fill markers stroke"/><path style="fill:none;stroke:#ff3e2c;stroke-width:2.08734;stroke-linecap:butt;stroke-linejoin:miter;stroke-miterlimit:4;stroke-dasharray:none;stroke-opacity:1" id="path959" d="m -406.96142,282.08958 c 0.69031,-0.46883 1.38049,-0.93758 2.07053,-1.40623"/><path id="path963" d="m -401.40131,278.31724 c 0.69031,-0.46884 1.38049,-0.93759 2.07053,-1.40624" style="fill:none;stroke:#ff3e2c;stroke-width:2.08734;stroke-linecap:butt;stroke-linejoin:miter;stroke-miterlimit:4;stroke-dasharray:none;stroke-opacity:1"/></g><rect style="fill:none;fill-opacity:1;stroke:#ff3e2c;stroke-width:9.303;stroke-linecap:square;stroke-linejoin:round;stroke-miterlimit:4;stroke-dasharray:none;stroke-opacity:1;paint-order:fill markers stroke" id="rect943" width="80.509" height="103.565" x="-171.979" y="113.682" clip-path="url(#clipPath870)" ry="17.387" transform="matrix(0.58864337,-0.15772651,0,0.58864337,143.75406,95.262217)"/><path style="fill:none;stroke:#ff3e2c;stroke-width:5.47588;stroke-linecap:butt;stroke-linejoin:miter;stroke-miterlimit:4;stroke-dasharray:none;stroke-opacity:1" id="path945" d="m 79.768484,240.34789 c 5.521559,-1.49936 11.043707,-2.99887 15.432418,-1.53984 4.388711,1.45904 7.645838,5.87628 13.757468,7.32195 6.11162,1.44567 15.07561,-0.0801 19.55775,-0.84304 4.48215,-0.76292 4.48215,-0.76292 0.36348,-2.75602 -4.11867,-1.9931 -12.3538,-5.97823 -14.38119,-8.54896 -2.02738,-2.57073 2.15444,-3.7262 6.33602,-4.88161"/><rect id="rect949" width="80.509" height="103.565" x="-171.979" y="113.682" clip-path="url(#clipPath870)" ry="17.387" transform="matrix(-0.58864337,0.15772651,0,0.58864337,54.445594,119.11306)" style="fill:none;fill-opacity:1;stroke:#ff3e2c;stroke-width:9.303;stroke-linecap:square;stroke-linejoin:round;stroke-miterlimit:4;stroke-dasharray:none;stroke-opacity:1;paint-order:fill markers stroke"/><path style="fill:none;stroke:#ff3e2c;stroke-width:5.47615;stroke-linecap:butt;stroke-linejoin:miter;stroke-miterlimit:4;stroke-dasharray:none;stroke-opacity:1" id="path951" d="m 77.562304,179.90901 c 3.597171,-1.03791 7.194147,-2.07576 9.830738,-9.23681 2.636591,-7.16106 4.313116,-20.44628 7.699254,-23.85491 3.386138,-3.40862 8.482044,3.05865 12.154354,-2.19054 3.67231,-5.24918 5.92096,-22.21469 8.01786,-21.93755 2.09689,0.27713 4.04204,17.79664 2.71067,27.01671 -1.33138,9.22008 -5.93943,10.14015 -7.89052,12.33461 -1.9511,2.19446 -1.24504,5.66309 0.89736,6.93657 2.1424,1.27348 5.75791,0.34199 9.35465,-0.58466"/><path style="fill:#ff3e2c;fill-opacity:1;stroke:none;stroke-width:.380269px;stroke-linecap:butt;stroke-linejoin:miter;stroke-opacity:1" id="path1084" d="m 79.016764,243.23164 1.46913,-0.23273 -1.24059,-5.32414 -0.77157,0.2237 z"/><g id="g1128" transform="matrix(-1.4900699,-0.09132865,-0.09132865,1.4900699,-462.32657,-256.62655)" style="stroke-width:2.08734;stroke-miterlimit:4;stroke-dasharray:none"><path id="path1120" d="m -470.90143,56.706556 a 4.7865677,8.8453903 0 0 1 -4.80036,8.811279 4.7865677,8.8453903 0 0 1 -4.77273,-8.86239 4.7865677,8.8453903 0 0 1 4.79117,-8.82835 4.7865677,8.8453903 0 0 1 4.78196,8.845387" transform="matrix(0.88141241,-0.4723475,0.27735009,0.96076892,0,0)" style="opacity:1;fill:none;fill-opacity:1;stroke:#ff3e2c;stroke-width:2.11086;stroke-linecap:square;stroke-linejoin:round;stroke-miterlimit:4;stroke-dasharray:none;stroke-opacity:1;paint-order:fill markers stroke"/><path style="opacity:1;fill:#ff3e2c;fill-opacity:1;stroke:none;stroke-width:2.11086;stroke-linecap:square;stroke-linejoin:round;stroke-miterlimit:4;stroke-dasharray:none;stroke-opacity:1;paint-order:fill markers stroke" id="path1122" d="m -473.03157,56.865482 a 2.6557064,4.9076428 0 0 1 -2.66336,4.888717 2.6557064,4.9076428 0 0 1 -2.64803,-4.917075 2.6557064,4.9076428 0 0 1 2.65826,-4.898188 2.6557064,4.9076428 0 0 1 2.65315,4.907641" transform="matrix(0.88141241,-0.4723475,0.27735009,0.96076892,0,0)"/><path id="path1124" d="m -406.96142,282.08958 c 0.69031,-0.46883 1.38049,-0.93758 2.07053,-1.40623" style="fill:none;stroke:#ff3e2c;stroke-width:2.08734;stroke-linecap:butt;stroke-linejoin:miter;stroke-miterlimit:4;stroke-dasharray:none;stroke-opacity:1"/><path style="fill:none;stroke:#ff3e2c;stroke-width:2.08734;stroke-linecap:butt;stroke-linejoin:miter;stroke-miterlimit:4;stroke-dasharray:none;stroke-opacity:1" id="path1126" d="m -401.40131,278.31724 c 0.69031,-0.46884 1.38049,-0.93759 2.07053,-1.40624"/></g></g></svg>